<svg width="" height="" viewBox="0 0 449 319" fill="none" xmlns="http://www.w3.org/2000/svg">
	<path
		d="M43.416 53.07C43.416 62.07 36.216 68.91 23.688 68.91C11.232 68.91 3.672 62.07 3.024 51.774H11.088C11.448 58.326 15.624 62.574 23.544 62.574C30.096 62.574 34.992 59.478 34.992 54.15C34.992 49.83 32.184 47.67 26.208 46.374L18.72 44.934C11.448 43.494 4.824 39.822 4.824 31.038C4.824 22.326 12.456 15.774 23.184 15.774C33.912 15.774 42.048 22.326 42.696 32.622H34.632C34.2 26.43 29.736 22.11 23.256 22.11C16.56 22.11 12.888 26.07 12.888 30.534C12.888 35.43 17.136 37.158 21.96 38.166L29.592 39.678C38.448 41.478 43.416 45.366 43.416 53.07ZM74.4345 69.27C59.4585 69.27 48.1545 57.534 48.1545 42.27C48.1545 27.006 59.4585 15.414 74.4345 15.414C89.4105 15.414 100.715 27.006 100.715 42.27C100.715 57.534 89.4105 69.27 74.4345 69.27ZM74.4345 62.142C85.3785 62.142 92.5065 53.358 92.5065 42.27C92.5065 31.182 85.3785 22.542 74.4345 22.542C63.4905 22.542 56.3625 31.182 56.3625 42.27C56.3625 53.358 63.4905 62.142 74.4345 62.142ZM132.521 68.19L116.177 28.662V68.19H108.905V16.494H118.625L135.977 58.47L153.257 16.494H163.049V68.19H155.705V28.59L139.289 68.19H132.521ZM197.481 69.27C182.505 69.27 171.201 57.534 171.201 42.27C171.201 27.006 182.505 15.414 197.481 15.414C212.457 15.414 223.761 27.006 223.761 42.27C223.761 57.534 212.457 69.27 197.481 69.27ZM197.481 62.142C208.425 62.142 215.553 53.358 215.553 42.27C215.553 31.182 208.425 22.542 197.481 22.542C186.537 22.542 179.409 31.182 179.409 42.27C179.409 53.358 186.537 62.142 197.481 62.142ZM269.752 53.07C269.752 62.07 262.552 68.91 250.024 68.91C237.568 68.91 230.008 62.07 229.36 51.774H237.424C237.784 58.326 241.96 62.574 249.88 62.574C256.432 62.574 261.328 59.478 261.328 54.15C261.328 49.83 258.52 47.67 252.544 46.374L245.056 44.934C237.784 43.494 231.16 39.822 231.16 31.038C231.16 22.326 238.792 15.774 249.52 15.774C260.248 15.774 268.384 22.326 269.032 32.622H260.968C260.536 26.43 256.072 22.11 249.592 22.11C242.896 22.11 239.224 26.07 239.224 30.534C239.224 35.43 243.472 37.158 248.296 38.166L255.928 39.678C264.784 41.478 269.752 45.366 269.752 53.07Z"
		fill="#333333"
	/>
	<path
		d="M112.432 114.494V147.614C112.432 159.494 104.8 167.27 92.416 167.27C80.032 167.27 72.472 159.494 72.472 147.614V114.494H80.392V147.83C80.392 155.318 84.784 160.142 92.416 160.142C100.12 160.142 104.512 155.318 104.512 147.83V114.494H112.432ZM158.012 166.19L130.796 125.798V166.19H123.452V114.494H132.092L158.66 153.806V114.494H166.004V166.19H158.012ZM228.794 151.358C228.794 160.79 221.882 166.19 211.154 166.19H192.218V114.494H210.146C220.586 114.494 226.85 119.318 226.85 128.03C226.85 132.926 223.898 137.102 218.93 139.262C225.338 141.062 228.794 145.454 228.794 151.358ZM209.642 120.83H199.49V136.382H209.642C215.906 136.382 219.29 133.43 219.29 128.606C219.29 123.782 215.906 120.83 209.642 120.83ZM210.65 142.718H199.49V159.854H210.65C217.418 159.854 221.234 156.614 221.234 151.142C221.234 145.886 217.418 142.718 210.65 142.718ZM276.682 114.494V147.614C276.682 159.494 269.05 167.27 256.666 167.27C244.282 167.27 236.722 159.494 236.722 147.614V114.494H244.642V147.83C244.642 155.318 249.034 160.142 256.666 160.142C264.37 160.142 268.762 155.318 268.762 147.83V114.494H276.682ZM320.462 159.278V166.19H287.702V114.494H319.958V121.406H295.622V136.094H317.798V143.006H295.622V159.278H320.462ZM364.309 166.19L337.093 125.798V166.19H329.749V114.494H338.389L364.957 153.806V114.494H372.301V166.19H364.309Z"
		fill="#333333"
	/>
	<path
		d="M258.184 279.19L253.504 266.374H231.184L226.432 279.19H218.44L238.24 227.494H246.952L266.608 279.19H258.184ZM242.416 236.134L233.56 259.966H251.128L242.416 236.134ZM289.542 279.19H281.622V234.622H264.774V227.494H306.39V234.622H289.542V279.19ZM333.043 280.27C318.643 280.27 307.483 268.534 307.483 253.27C307.483 238.078 318.643 226.414 333.043 226.414C346.003 226.414 356.371 235.054 358.315 247.798H349.891C348.451 239.446 341.683 233.542 333.115 233.542C322.891 233.542 315.691 241.822 315.691 253.27C315.691 264.862 322.891 273.142 333.115 273.142C341.683 273.142 348.451 267.166 349.891 258.814H358.315C356.371 271.63 346.003 280.27 333.043 280.27ZM374.466 279.19H366.546V227.494H374.466V249.094H400.674V227.494H408.594V279.19H400.674V256.006H374.466V279.19ZM422.435 240.814H415.523C415.811 232.534 422.507 226.774 431.579 226.774C440.939 226.774 447.203 232.318 447.203 239.806C447.203 244.198 444.755 247.51 440.795 250.894L436.547 254.35C433.019 257.374 432.227 259.318 432.803 265.006H427.907C426.323 258.454 426.395 255.214 430.571 251.542L434.891 247.726C437.627 245.278 439.211 243.478 439.211 240.454C439.211 236.35 436.043 233.254 430.859 233.254C425.963 233.254 422.651 236.35 422.435 240.814ZM435.971 274.15C435.971 277.246 433.451 279.55 430.211 279.55C426.971 279.55 424.451 277.246 424.451 274.15C424.451 270.91 426.899 268.606 430.211 268.606C433.523 268.606 435.971 270.91 435.971 274.15Z"
		fill="#333333"
	/>
	<g clip-path="url(#clip0_50_6509)">
		<path
			d="M118.59 316.9C118.59 316.9 100.49 288.94 102.68 257.96C104.88 226.98 118.04 200.38 142.44 202.85C179.81 206.63 170.95 292.5 149.02 289.21C141.62 288.1 141.77 272.63 147.92 257.13C155.32 238.49 165.24 225.47 179.45 229.71C197.82 235.19 183.29 272.4 183.29 272.4C183.29 272.4 192.89 242.32 206.05 239.86C219.21 237.4 215.88 265.2 199.72 282.14"
			stroke="#333333"
			stroke-width="7"
			stroke-miterlimit="10"
		/>
	</g>
	<defs>
		<clipPath id="clip0_50_6509">
			<rect width="118.67" height="119.62" fill="white" transform="translate(99 199.19)" />
		</clipPath>
	</defs>
</svg>
