<?xml version="1.0" encoding="utf-8"?>
<!-- Generator: Adobe Illustrator 27.9.0, SVG Export Plug-In . SVG Version: 6.00 Build 0)  -->
<svg version="1.1" xmlns="http://www.w3.org/2000/svg" xmlns:xlink="http://www.w3.org/1999/xlink" x="0px" y="0px"
	 viewBox="0 0 1920 1080" style="enable-background:new 0 0 1920 1080;" xml:space="preserve">
<style type="text/css">
	.st0{fill:#1A1A1A;}
</style>
<g id="D1">
	<path class="st0" d="M487.02,451.5c-0.22-0.93-0.46-1.84-0.7-2.74c-0.13-0.46-0.25-0.9-0.39-1.35c-0.13-0.45-0.26-0.89-0.4-1.33
		c-0.14-0.44-0.28-0.88-0.42-1.32c-0.12-0.36-0.24-0.72-0.36-1.08c-0.08-0.23-0.16-0.44-0.24-0.67c-0.17-0.47-0.34-0.94-0.51-1.4
		c-0.16-0.44-0.33-0.87-0.5-1.29c-0.02-0.03-0.03-0.07-0.05-0.11c-0.15-0.41-0.32-0.82-0.49-1.21c-0.07-0.17-0.14-0.35-0.22-0.52
		c-0.11-0.26-0.22-0.52-0.34-0.77c-0.18-0.42-0.37-0.82-0.56-1.23c-0.19-0.43-0.39-0.85-0.61-1.27c-0.04-0.1-0.08-0.19-0.13-0.28
		c-0.14-0.28-0.28-0.56-0.43-0.84c-0.47-0.91-0.96-1.82-1.47-2.71c-0.14-0.25-0.29-0.49-0.43-0.74c-0.25-0.42-0.51-0.84-0.77-1.26
		c-0.33-0.52-0.67-1.04-1.01-1.56c-0.28-0.41-0.55-0.82-0.84-1.21c-0.07-0.11-0.14-0.21-0.23-0.32c-0.09-0.15-0.2-0.28-0.3-0.42
		c-0.29-0.4-0.58-0.79-0.88-1.18c-0.34-0.45-0.69-0.88-1.05-1.32c-0.1-0.13-0.22-0.27-0.33-0.4c-0.34-0.41-0.68-0.82-1.04-1.22
		c-0.41-0.47-0.84-0.94-1.27-1.39c-0.41-0.44-0.82-0.87-1.25-1.28c-0.91-0.91-1.86-1.79-2.84-2.62
		c-24.4-20.95-66.88-25.65-110.89-12.27c-56.23,17.09-98.32,57.95-112.59,109.32c-4.45,16.02-6.24,49.21,15.33,71.96
		c9.56,10.09,22.09,16.69,37.49,19.76c-5.29,23.71-8.26,50-2.54,69.61c4.48,15.35,13.18,22.63,19.69,26.04
		c5.55,2.9,11.29,4.11,17.04,4.11c19.17,0,38.51-13.38,51.26-22.19c65.99-45.65,104.97-134.61,108.12-195.13
		C490.58,474.23,489.61,462.1,487.02,451.5z M457.76,485.99c-2.8,53.61-38.84,131.99-94.31,170.36
		c-6.52,4.51-14.63,10.12-22.52,13.6c-6.91,3.04-11.09,3.21-12.56,2.44c-1.35-0.7-2.75-3.16-3.74-6.56
		c-3.46-11.86-2.17-32.49,4.28-58.98c9.12-0.67,18.89-2.16,29.29-4.45l-6.93-31.4c-4.32,0.95-8.47,1.74-12.45,2.35
		c10.31-30.02,25.71-64.6,46.59-101l-27.9-15.99c-22.78,39.72-40.93,80.26-52.75,117.71c-9.78-1.63-17.4-5.22-22.62-10.73
		c-10.85-11.45-10.53-30.92-7.68-41.22c11.32-40.71,45.32-73.29,90.95-87.17c32.57-9.89,64.96-7.52,80.6,5.9
		c0.23,0.2,0.47,0.4,0.69,0.63c0.01,0.01,0.03,0.02,0.04,0.03c0.22,0.2,0.43,0.41,0.63,0.62l0.07,0.07
		c0.21,0.23,0.43,0.46,0.64,0.69c0.24,0.28,0.48,0.56,0.71,0.85c0.2,0.23,0.38,0.48,0.57,0.73c0.21,0.28,0.41,0.55,0.61,0.84
		c0.4,0.58,0.78,1.18,1.14,1.81c0.19,0.31,0.38,0.64,0.55,0.96c0.13,0.24,0.25,0.47,0.37,0.71c0.23,0.43,0.44,0.88,0.65,1.33
		c0.15,0.32,0.29,0.64,0.44,0.97c0.06,0.13,0.11,0.27,0.17,0.41C456.9,460.11,458.49,472,457.76,485.99z"/>
</g>
<g id="D2">
</g>
<g id="D3">
</g>
<g id="A1">
</g>
<g id="A2">
</g>
<g id="A3">
</g>
<g id="N1">
	<path class="st0" d="M814.8,485.58c-28.79,0-57.74,18.96-73.39,38.44V488.9h-39.84v8.56c-1.62,26.81-15.35,63.36-42.22,92.28
		v-22.57c0-1.98-0.04-3.94-0.1-5.87c-1.56-45.94-22.21-75.83-89.06-75.83c-48.07,0-77.7,22.39-77.7,22.39l18.17,26.83
		c0,0,20.95-16.57,62.37-16.57c41.42,0,46.49,15.39,46.49,49.06v12.91c-16.57-11.43-35.03-17.19-55.24-17.19
		c-18.78,0-36.44,4.13-49.71,11.61c-16.67,9.43-25.87,23.57-25.87,39.84c0,14.82,6.61,27.55,19.1,36.83
		c14.72,10.92,35.92,15.51,56.87,15.51c13.99,0,27.87-2.04,39.64-5.61c5.28-1.6,10.36-3.38,15.21-5.36v10.92h39.83v-33.57
		c18.91-14.35,32.66-30.79,42.22-44.97v78.54h39.84V560.76c13.84-20.62,38.15-40.12,64.17-40.12c36.21,0,36.21,41.97,36.21,68.82
		v77.18h39.83v-77.18C881.62,512.29,857.2,485.58,814.8,485.58z M595,630.31c-24.06,7.26-54.57,5.04-68.04-4.95
		c-5.4-4.01-6.1-7.99-6.1-11.01c0-9.32,17.44-19.3,43.42-19.3c20.26,0,37.78,8.62,53.28,26.27
		C610.5,624.86,602.98,627.89,595,630.31z"/>
</g>
<g id="N2">
</g>
<g id="I">
	<rect x="909.8" y="488.9" class="st0" width="39.83" height="177.73"/>
</g>
<g id="_x2E_">
	<circle class="st0" cx="1008.27" cy="633.97" r="21.23"/>
</g>
<g id="R1">
</g>
<g id="R2">
</g>
<g id="R3">
	<path class="st0" d="M1231.84,604.72c-11.48-13.14-24.41-25.13-38.48-35.75c35.95-12.92,63.45-42.63,70.31-79.36
		c4.79-25.61-1.16-52.46-16.79-75.6c-13.27-19.67-32.87-35.45-52.44-42.22c-32.31-11.19-65.32-11.7-95.45-1.49
		c-26.27,8.9-49.98,25.6-68.56,48.29c-14.88,18.17-24.92,39.73-29.85,64.08l31.52,6.38c3.87-19.16,11.68-36.01,23.2-50.08
		c32.49-39.68,80.58-53.43,128.63-36.79c24.32,8.42,55.47,42.3,48.14,81.53c-5.65,30.18-32,53.59-64.69,58.93
		c0.33-2.77,0.64-5.54,0.91-8.31c0.01-0.17,0.03-0.33,0.05-0.49c0.94-9.95,1.44-19.92,1.48-29.91c0-0.07,0-0.1,0-0.1
		c0.08-14.11-0.75-28.27-2.46-42.42l-31.93,3.87c1.5,12.32,2.24,24.63,2.24,36.92c0.01,0.06,0.01,0.11,0,0.16
		c0.01,1.04,0.01,2.07-0.01,3.1c-0.09,7.23-0.43,14.45-1.02,21.65c-11.43-9.69-25.79-16.57-42.26-20.01
		c-15.01-3.13-39.28-0.62-57.12,12.26c-12.02,8.69-19.22,20.66-20.82,34.62c-1.24,10.82,2.46,20.92,10.41,28.46
		c14.02,13.3,38.87,16.69,60.62,16.69c14.45,0,27.55-1.5,35.19-2.59h0.01c-0.12,0.34-0.22,0.68-0.33,1.02
		c-0.18,0.51-0.34,1-0.5,1.49c-5.86,17.76-11.34,29.07-12.35,31.09c-0.03,0.06-0.06,0.12-0.08,0.17c-0.04,0.08-0.07,0.13-0.07,0.15
		c-0.01,0.01-0.01,0.01-0.01,0.01c-6.71,14.48-14.57,28.43-23.54,41.78l26.7,17.93c13.12-19.53,24.09-40.22,32.81-61.84
		c0-0.02,0.01-0.04,0.02-0.06c5.72-14.18,10.47-28.77,14.24-43.69c17.98,11.53,34.23,25.46,48.07,41.29
		c14.29,16.35,26.15,34.78,35.26,54.77l29.26-13.33C1261.74,644.49,1248.18,623.42,1231.84,604.72z M1122.41,564.02
		c-0.07,0.02-0.15,0.03-0.22,0.05c-18.16,3.06-37.05,3.75-51.81,1.9c-16.47-2.08-21.61-6.56-21.99-7.56c0,0-0.06-0.22,0-0.78
		c0.56-4.87,3.08-8.85,7.71-12.21c7.01-5.05,17.08-7.44,25.22-7.44c2.38,0,4.58,0.2,6.5,0.61c8.03,1.66,25.21,6.85,36.1,21.75
		c0.7,0.96,1.4,1.96,2.04,3.02C1124.76,563.6,1123.58,563.84,1122.41,564.02z"/>
</g>
<g id="R4">
</g>
<g id="E1">
</g>
<g id="E2">
	<path class="st0" d="M1661.81,472.85l-34.18,6.52c8.91,44.54-5.03,71.4-14.12,83.45c-9.68,12.79-22.72,21.01-34.9,21.97
		c-1.23,0.1-2.5,0.16-3.82,0.16c-16.92-0.01-39.83-8.41-42.42-33.23c-3.44-33.06,19.71-61.13,42.81-84.23l-22.74-22.74
		c-26.79,26.8-56.92,63.54-52.05,110.3c4.3,41.3,40.28,62.06,74.26,62.06c2.18,0,4.36-0.09,6.51-0.25
		c21.52-1.72,42.65-14.35,57.99-34.66c2.69-3.55,5.16-7.28,7.38-11.15c1.42,20.82,0.81,39.67-1.89,56.08
		c-4.95,30.26-16.7,50.08-33.07,55.79c-3.79,1.32-7.8,1.92-11.96,1.91c-29.45,0-66.38-29.85-83.35-43.58
		c-2.25-1.83-48.51-39.58-48.51-39.58c-37.49,45.18-67.81,59.61-101.38,48.24c-20.84-7.06-35.94-23.96-42.04-46
		c13.42,2.98,26.67,4.47,39.69,4.47c10.72,0,21.27-1.02,31.63-3.03c0.67-0.13,1.34-0.27,2-0.4c0.58-0.13,1.17-0.26,1.74-0.39
		c0.05,0,0.09-0.01,0.13-0.02c0.61-0.14,1.23-0.28,1.84-0.43c1.26-0.3,2.51-0.62,3.74-0.95c0.63-0.16,1.24-0.33,1.85-0.51
		c0.61-0.17,1.22-0.35,1.83-0.54c0.6-0.18,1.19-0.36,1.79-0.54c0.61-0.2,1.21-0.39,1.82-0.59c0.27-0.09,0.54-0.18,0.81-0.28
		c0.5-0.17,1-0.34,1.51-0.52c0.37-0.13,0.75-0.27,1.13-0.41c0.38-0.13,0.75-0.27,1.12-0.41c0.49-0.19,0.98-0.37,1.46-0.56
		c0.32-0.12,0.64-0.24,0.95-0.37c0.57-0.23,1.13-0.46,1.7-0.69c0.56-0.24,1.12-0.48,1.67-0.72c0.41-0.17,0.82-0.36,1.22-0.53
		c0.02-0.02,0.05-0.03,0.08-0.05c0.53-0.23,1.05-0.47,1.58-0.72c1.05-0.49,2.08-1,3.1-1.51c0.5-0.26,1.02-0.52,1.51-0.78
		c0.51-0.27,1-0.53,1.5-0.8c5.8-3.18,11.05-6.77,15.6-10.73c16.79-14.57,24.11-33.94,20.58-54.53
		c-2.83-16.57-12.24-30.52-27.22-40.32c-20.16-13.18-48.31-17.05-75.31-10.36c-23.59,5.85-44.68,21.11-59.38,42.99
		c-8.66,12.87-14.51,27.2-17.31,42c-5.21-2.87-10.35-6.78-14.77-12.12l-24.76,20.52c12.33,14.89,27.61,22.8,41.06,26.99
		c2.26,17.14,8.22,33.09,17.51,46.66c11.82,17.26,28.53,29.93,48.33,36.63c10.7,3.63,21.34,5.44,31.88,5.44
		c16.08,0,31.94-4.23,47.37-12.65c11.79-6.44,23.41-15.31,35.55-27.22c0,0,22.99,18.55,25.18,20.32
		c21.55,17.43,62.74,50.76,103.63,50.75c7.54,0,15.09-1.14,22.5-3.72c28-9.78,47.25-38.53,54.21-80.95
		C1683.25,590.43,1677.98,534.69,1661.81,472.85z M1319.93,569.52c4.75-29.18,25.86-54.84,53.2-61.62
		c18.2-4.51,37.33-2.19,49.96,6.06c7.4,4.85,11.82,11.18,13.13,18.82c1.29,7.56-0.7,13.85-4.49,19.04
		c-0.04,0.04-0.06,0.08-0.09,0.12c-0.01,0.02-0.03,0.04-0.04,0.05c-0.13,0.18-0.27,0.36-0.41,0.54c-0.36,0.47-0.74,0.94-1.15,1.39
		c-0.18,0.22-0.36,0.43-0.56,0.63c0,0.02-0.01,0.02-0.03,0.04c-0.11,0.13-0.23,0.25-0.35,0.37c-0.23,0.26-0.48,0.51-0.72,0.75
		c-0.28,0.28-0.56,0.56-0.85,0.83c-0.28,0.26-0.55,0.52-0.84,0.76c-0.32,0.29-0.64,0.56-0.96,0.84c-0.27,0.23-0.55,0.44-0.82,0.66
		c-0.61,0.49-1.24,0.97-1.88,1.42c-0.32,0.23-0.63,0.46-0.95,0.67c-0.01,0-0.01,0.01-0.02,0.02c-0.55,0.37-1.11,0.74-1.68,1.1
		c-0.54,0.35-1.09,0.69-1.65,1.02c-0.08,0.04-0.16,0.09-0.24,0.13c-0.49,0.29-0.97,0.57-1.47,0.85c-1.72,0.95-3.47,1.82-5.22,2.61
		c-0.29,0.14-0.58,0.27-0.87,0.39c-1.02,0.46-2.04,0.89-3.03,1.29c-0.55,0.21-1.08,0.42-1.61,0.62c-2.67,1.02-5.23,1.86-7.51,2.54
		c-0.45,0.13-0.89,0.26-1.32,0.38c-0.22,0.07-0.43,0.13-0.64,0.18c-0.11,0.03-0.22,0.07-0.33,0.09c-0.51,0.15-1.01,0.28-1.48,0.4
		c-0.38,0.1-0.75,0.19-1.1,0.28c-0.31,0.08-0.61,0.16-0.9,0.22c-0.01,0-0.03,0.01-0.04,0.01c-0.25,0.07-0.48,0.11-0.72,0.17
		c-0.15,0.03-0.28,0.07-0.42,0.1c-0.51,0.11-0.94,0.21-1.33,0.29c-0.1,0.03-0.2,0.04-0.3,0.07c-0.28,0.05-0.52,0.1-0.7,0.13
		c-21.77,4.25-44.85,2.93-68.69-3.95c-0.3-0.08-0.59-0.16-0.89-0.24C1319.92,569.56,1319.93,569.55,1319.93,569.52z"/>
</g>
<g id="Y">
</g>
</svg>
